<svg width="132" height="57" viewBox="0 0 132 57" fill="none" xmlns="http://www.w3.org/2000/svg">
<g filter="url(#filter0_d_447_1674)">
<path d="M20.1199 36.28C18.4772 36.28 17.0492 35.9533 15.8359 35.3C14.6225 34.628 13.6799 33.7227 13.0079 32.584C12.3359 31.4267 11.9999 30.1107 11.9999 28.636C11.9999 27.4973 12.1865 26.452 12.5599 25.5C12.9332 24.548 13.4559 23.7267 14.1279 23.036C14.7999 22.3267 15.5932 21.7853 16.5079 21.412C17.4412 21.02 18.4585 20.824 19.5599 20.824C20.6052 20.824 21.5572 21.0107 22.4159 21.384C23.2932 21.7573 24.0492 22.28 24.6839 22.952C25.3185 23.624 25.8039 24.4173 26.1399 25.332C26.4759 26.2467 26.6252 27.2453 26.5879 28.328L26.5599 29.532H14.7159L14.0719 27.012H22.9199L22.4439 27.544V26.984C22.4065 26.5173 22.2572 26.1067 21.9959 25.752C21.7532 25.3787 21.4265 25.0893 21.0159 24.884C20.6052 24.6787 20.1385 24.576 19.6159 24.576C18.8879 24.576 18.2625 24.7253 17.7399 25.024C17.2359 25.304 16.8532 25.724 16.5919 26.284C16.3305 26.8253 16.1999 27.4973 16.1999 28.3C16.1999 29.1213 16.3679 29.84 16.7039 30.456C17.0585 31.0533 17.5625 31.52 18.2159 31.856C18.8879 32.192 19.6812 32.36 20.5959 32.36C21.2305 32.36 21.7905 32.2667 22.2759 32.08C22.7799 31.8933 23.3212 31.576 23.8999 31.128L25.9999 34.096C25.4212 34.6 24.8052 35.0107 24.1519 35.328C23.4985 35.6453 22.8265 35.8787 22.1359 36.028C21.4639 36.196 20.7919 36.28 20.1199 36.28ZM41.1527 36L35.0767 27.208L27.2927 16.4H33.0887L39.0247 25.08L46.9487 36H41.1527ZM27.1527 36L34.6287 25.332L38.4647 27.544L32.6687 36H27.1527ZM39.4727 26.9L35.6647 24.772L41.1527 16.4H46.6687L39.4727 26.9Z" fill="#3B44F6"/>
<path d="M55.7709 36.28C54.6322 36.28 53.5869 36.14 52.6349 35.86C51.6829 35.5613 50.8242 35.1227 50.0589 34.544C49.2935 33.9653 48.6122 33.2653 48.0149 32.444L50.3949 29.756C51.3095 31.0253 52.2055 31.9027 53.0829 32.388C53.9602 32.8733 54.9495 33.116 56.0509 33.116C56.6855 33.116 57.2642 33.0227 57.7869 32.836C58.3095 32.6307 58.7202 32.36 59.0189 32.024C59.3175 31.6693 59.4669 31.268 59.4669 30.82C59.4669 30.5027 59.4015 30.2133 59.2709 29.952C59.1589 29.672 58.9815 29.4293 58.7389 29.224C58.4962 29 58.1975 28.7947 57.8429 28.608C57.4882 28.4213 57.0869 28.2627 56.6389 28.132C56.1909 28.0013 55.6962 27.88 55.1549 27.768C54.1282 27.5627 53.2322 27.292 52.4669 26.956C51.7015 26.6013 51.0575 26.172 50.5349 25.668C50.0122 25.1453 49.6295 24.5667 49.3869 23.932C49.1442 23.2787 49.0229 22.5413 49.0229 21.72C49.0229 20.8987 49.2002 20.1427 49.5549 19.452C49.9282 18.7613 50.4322 18.164 51.0669 17.66C51.7015 17.156 52.4389 16.764 53.2789 16.484C54.1189 16.204 55.0242 16.064 55.9949 16.064C57.0962 16.064 58.0762 16.1947 58.9349 16.456C59.8122 16.7173 60.5775 17.1093 61.2309 17.632C61.9029 18.136 62.4535 18.752 62.8829 19.48L60.4749 21.86C60.1015 21.2813 59.6815 20.8053 59.2149 20.432C58.7482 20.04 58.2442 19.7507 57.7029 19.564C57.1615 19.3587 56.5922 19.256 55.9949 19.256C55.3229 19.256 54.7349 19.3493 54.2309 19.536C53.7455 19.7227 53.3629 19.9933 53.0829 20.348C52.8029 20.684 52.6629 21.0947 52.6629 21.58C52.6629 21.9533 52.7469 22.2893 52.9149 22.588C53.0829 22.868 53.3162 23.12 53.6149 23.344C53.9322 23.568 54.3335 23.764 54.8189 23.932C55.3042 24.1 55.8549 24.2493 56.4709 24.38C57.4975 24.5853 58.4215 24.8653 59.2429 25.22C60.0642 25.556 60.7642 25.9667 61.3429 26.452C61.9215 26.9187 62.3602 27.46 62.6589 28.076C62.9575 28.6733 63.1069 29.3453 63.1069 30.092C63.1069 31.38 62.7989 32.4907 62.1829 33.424C61.5855 34.3387 60.7362 35.048 59.6349 35.552C58.5335 36.0373 57.2455 36.28 55.7709 36.28ZM68.0895 36V17.492H71.5335V36H68.0895ZM65.1775 24.436V21.244H74.7535V24.436H65.1775ZM83.9876 36.28C82.513 36.28 81.197 35.9533 80.0396 35.3C78.8823 34.628 77.9676 33.7133 77.2956 32.556C76.6236 31.3987 76.2876 30.0827 76.2876 28.608C76.2876 27.1333 76.6236 25.8173 77.2956 24.66C77.9676 23.5027 78.8823 22.5973 80.0396 21.944C81.197 21.272 82.513 20.936 83.9876 20.936C85.4436 20.936 86.7503 21.272 87.9076 21.944C89.065 22.5973 89.9703 23.5027 90.6236 24.66C91.2956 25.8173 91.6316 27.1333 91.6316 28.608C91.6316 30.0827 91.2956 31.3987 90.6236 32.556C89.9703 33.7133 89.065 34.628 87.9076 35.3C86.7503 35.9533 85.4436 36.28 83.9876 36.28ZM83.9876 33.228C84.7903 33.228 85.4996 33.0227 86.1156 32.612C86.7503 32.2013 87.245 31.6507 87.5996 30.96C87.973 30.2693 88.1503 29.4853 88.1316 28.608C88.1503 27.712 87.973 26.9187 87.5996 26.228C87.245 25.5373 86.7503 24.996 86.1156 24.604C85.4996 24.1933 84.7903 23.988 83.9876 23.988C83.185 23.988 82.457 24.1933 81.8036 24.604C81.169 24.996 80.6743 25.5467 80.3196 26.256C79.965 26.9467 79.7876 27.7307 79.7876 28.608C79.7876 29.4853 79.965 30.2693 80.3196 30.96C80.6743 31.6507 81.169 32.2013 81.8036 32.612C82.457 33.0227 83.185 33.228 83.9876 33.228ZM94.7123 36V21.244H98.1003L98.1563 25.948L97.6803 24.884C97.8856 24.1373 98.2403 23.4653 98.7443 22.868C99.2483 22.2707 99.827 21.804 100.48 21.468C101.152 21.1133 101.852 20.936 102.58 20.936C102.898 20.936 103.196 20.964 103.476 21.02C103.775 21.076 104.018 21.1413 104.204 21.216L103.28 24.996C103.075 24.884 102.823 24.7907 102.524 24.716C102.226 24.6413 101.927 24.604 101.628 24.604C101.162 24.604 100.714 24.6973 100.284 24.884C99.8736 25.052 99.5096 25.2947 99.1923 25.612C98.875 25.9293 98.623 26.3027 98.4363 26.732C98.2683 27.1427 98.1843 27.6093 98.1843 28.132V36H94.7123ZM112.785 36.28C111.235 36.28 109.863 35.9533 108.669 35.3C107.493 34.6467 106.569 33.76 105.897 32.64C105.243 31.5013 104.917 30.204 104.917 28.748C104.917 27.5907 105.103 26.536 105.477 25.584C105.85 24.632 106.363 23.8107 107.017 23.12C107.689 22.4107 108.482 21.8693 109.397 21.496C110.33 21.104 111.347 20.908 112.449 20.908C113.419 20.908 114.325 21.0947 115.165 21.468C116.005 21.8413 116.733 22.3547 117.349 23.008C117.965 23.6427 118.431 24.408 118.749 25.304C119.085 26.1813 119.243 27.1427 119.225 28.188L119.197 29.392H107.241L106.597 27.04H116.313L115.865 27.516V26.9C115.809 26.3213 115.622 25.8173 115.305 25.388C114.987 24.94 114.577 24.5947 114.073 24.352C113.587 24.0907 113.046 23.96 112.449 23.96C111.534 23.96 110.759 24.1373 110.125 24.492C109.509 24.8467 109.042 25.36 108.725 26.032C108.407 26.6853 108.249 27.5067 108.249 28.496C108.249 29.448 108.445 30.2787 108.837 30.988C109.247 31.6973 109.817 32.248 110.545 32.64C111.291 33.0133 112.159 33.2 113.149 33.2C113.839 33.2 114.474 33.088 115.053 32.864C115.631 32.64 116.257 32.2387 116.929 31.66L118.637 34.04C118.133 34.5067 117.554 34.908 116.901 35.244C116.266 35.5613 115.594 35.8133 114.885 36C114.175 36.1867 113.475 36.28 112.785 36.28Z" fill="#F5F4F9"/>
</g>
<defs>
<filter id="filter0_d_447_1674" x="-11.3467" y="-4" width="154" height="75" filterUnits="userSpaceOnUse" color-interpolation-filters="sRGB">
<feFlood flood-opacity="0" result="BackgroundImageFix"/>
<feColorMatrix in="SourceAlpha" type="matrix" values="0 0 0 0 0 0 0 0 0 0 0 0 0 0 0 0 0 0 127 0" result="hardAlpha"/>
<feOffset dy="8"/>
<feGaussianBlur stdDeviation="6"/>
<feComposite in2="hardAlpha" operator="out"/>
<feColorMatrix type="matrix" values="0 0 0 0 0.55 0 0 0 0 0.55 0 0 0 0 0.55 0 0 0 0.15 0"/>
<feBlend mode="normal" in2="BackgroundImageFix" result="effect1_dropShadow_447_1674"/>
<feBlend mode="normal" in="SourceGraphic" in2="effect1_dropShadow_447_1674" result="shape"/>
</filter>
</defs>
</svg>
