<svg width="48" height="48" viewBox="0 0 48 48" fill="none" xmlns="http://www.w3.org/2000/svg">
<path d="M46 35.9819H13.7701C13.2599 35.9816 12.7691 35.7861 12.3984 35.4357C12.0277 35.0852 11.8052 34.6063 11.7766 34.0971L11.7702 33.9829H39.33C40.7519 33.988 42.1291 33.4866 43.2146 32.5686C44.3001 31.6506 45.0229 30.3762 45.2533 28.9738L47.9125 12.9829C48.0569 12.124 48.0123 11.2439 47.7817 10.4039C47.5511 9.56399 47.1401 8.78438 46.5773 8.11941C46.0145 7.45444 45.3134 6.92008 44.5229 6.55356C43.7324 6.18704 42.8715 5.99716 42 5.99715H10.0775C9.90951 4.91211 9.44583 3.89425 8.73727 3.05523C8.02872 2.21621 7.10266 1.58844 6.06068 1.24078L2.6302 0.101756C2.12671 -0.0652457 1.57747 -0.0254995 1.10331 0.212251C0.629143 0.450001 0.268893 0.866279 0.101807 1.36951C-0.0652786 1.87274 -0.0255124 2.4217 0.212358 2.89563C0.450228 3.36955 0.866717 3.72962 1.3702 3.89662L4.79369 5.03285C5.1746 5.15981 5.50874 5.3979 5.75303 5.71642C5.99732 6.03495 6.14056 6.4193 6.16428 6.81993L7.78337 34.3265C7.8398 35.3076 8.13704 36.2598 8.64886 37.0989C9.16068 37.938 9.87133 38.6382 10.7181 39.1378C10.2407 40.0175 9.99102 41.0026 9.99178 42.0034C9.99253 43.0041 10.2437 43.9888 10.7224 44.8678C11.2011 45.7469 11.8921 46.4922 12.7326 47.0362C13.573 47.5801 14.5363 47.9054 15.5346 47.9823C16.5329 48.0592 17.5346 47.8853 18.4486 47.4765C19.3625 47.0677 20.1597 46.4369 20.7674 45.6416C21.3752 44.8463 21.7744 43.9117 21.9285 42.9228C22.0827 41.934 21.987 40.9223 21.6501 39.9798H34.3501C34.0264 40.8849 33.9252 41.8545 34.0549 42.8068C34.1845 43.7591 34.5413 44.6664 35.0952 45.4521C35.649 46.2378 36.3837 46.8789 37.2373 47.3215C38.0909 47.764 39.0384 47.995 40 47.995C40.9616 47.995 41.9092 47.764 42.7628 47.3215C43.6164 46.8789 44.351 46.2378 44.9049 45.4521C45.4587 44.6664 45.8155 43.7591 45.9452 42.8068C46.0749 41.8545 45.9736 40.8849 45.65 39.9798H46C46.5304 39.9798 47.0391 39.7692 47.4142 39.3944C47.7893 39.0195 48 38.511 48 37.9809C48 37.4507 47.7893 36.9422 47.4142 36.5674C47.0391 36.1925 46.5304 35.9819 46 35.9819ZM34.0001 13.9931C34.0001 13.4629 34.2108 12.9545 34.5858 12.5796C34.9609 12.2047 35.4696 11.9941 36.0001 11.9941C36.5305 11.9941 37.0392 12.2047 37.4143 12.5796C37.7893 12.9545 38 13.4629 38 13.9931V25.987C38 26.5171 37.7893 27.0256 37.4143 27.4005C37.0392 27.7754 36.5305 27.986 36.0001 27.986C35.4696 27.986 34.9609 27.7754 34.5858 27.4005C34.2108 27.0256 34.0001 26.5171 34.0001 25.987V13.9931ZM25.0001 13.9931C25.0001 13.4629 25.2108 12.9545 25.5859 12.5796C25.961 12.2047 26.4697 11.9941 27.0001 11.9941C27.5305 11.9941 28.0392 12.2047 28.4143 12.5796C28.7894 12.9545 29.0001 13.4629 29.0001 13.9931V25.987C29.0001 26.5171 28.7894 27.0256 28.4143 27.4005C28.0392 27.7754 27.5305 27.986 27.0001 27.986C26.4697 27.986 25.961 27.7754 25.5859 27.4005C25.2108 27.0256 25.0001 26.5171 25.0001 25.987V13.9931ZM16.0001 13.9931C16.0001 13.4629 16.2109 12.9545 16.5859 12.5796C16.961 12.2047 17.4697 11.9941 18.0001 11.9941C18.5306 11.9941 19.0393 12.2047 19.4143 12.5796C19.7894 12.9545 20.0001 13.4629 20.0001 13.9931V25.987C20.0001 26.5171 19.7894 27.0256 19.4143 27.4005C19.0393 27.7754 18.5306 27.986 18.0001 27.986C17.4697 27.986 16.961 27.7754 16.5859 27.4005C16.2109 27.0256 16.0001 26.5171 16.0001 25.987V13.9931Z" fill="#3B44F6"/>
</svg>
