<svg width="116" height="52" viewBox="0 0 116 52" fill="none" xmlns="http://www.w3.org/2000/svg">
<path d="M15.2539 52H3.53057C3.30425 52 3.1232 51.9307 2.95723 51.7922L0.241406 49.2992C0.0754395 49.1468 0 48.9806 0 48.7729V39.7562C0 39.5623 0.0754395 39.3961 0.241406 39.2438C0.392285 39.0914 0.57334 39.0222 0.799659 39.0222H3.57583C3.80215 39.0222 3.98321 38.9529 4.14917 38.8006C4.30005 38.662 4.37549 38.4958 4.37549 38.2881V37.7341C4.37549 37.5263 4.45093 37.3601 4.6169 37.2078C4.76778 37.0693 4.94883 37 5.17515 37H15.2539C15.4802 37 15.6612 37.0693 15.8121 37.2078L18.7694 39.9224V40.144C18.7694 40.3518 18.6939 40.518 18.5581 40.6565C18.4072 40.795 18.2111 40.8643 17.9848 40.8781L16.5816 40.892C16.3553 40.892 16.1742 40.8227 16.0083 40.6842L14.424 39.2438C14.2732 39.0914 14.0921 39.0222 13.8658 39.0222H5.17515C4.94883 39.0222 4.76778 39.0914 4.6169 39.2438C4.45093 39.3961 4.37549 39.5623 4.37549 39.7562V49.7701L4.58672 49.9778H14.1977L14.4089 49.7701V46.2521C14.4089 46.0443 14.3335 45.8781 14.1826 45.7258C14.0167 45.5873 13.8356 45.518 13.6093 45.518H7.61939C7.39307 45.518 7.21202 45.4488 7.06114 45.2964C6.89517 45.1579 6.81973 44.9917 6.81973 44.7839V44.2161C6.81973 44.0083 6.89517 43.8421 7.06114 43.6898C7.21202 43.5512 7.39307 43.482 7.61939 43.482H17.9848C18.196 43.482 18.3771 43.5512 18.543 43.6898C18.6939 43.8421 18.7694 44.0083 18.7694 44.2161V48.7729C18.7694 48.9806 18.6939 49.1468 18.543 49.2992L15.8121 51.7922C15.6612 51.9307 15.4802 52 15.2539 52Z" fill="#3B44F6"/>
<path d="M41.3107 52H38.5345C38.3082 52 38.1271 51.9307 37.9763 51.7784C37.8103 51.6399 37.7348 51.4737 37.7348 51.2659V47.4294C37.7348 47.2216 37.6594 47.0554 37.5085 46.903C37.3426 46.7645 37.1615 46.6953 36.9352 46.6953H28.501C28.2747 46.6953 28.0937 46.7645 27.9428 46.903C27.7768 47.0554 27.7014 47.2216 27.7014 47.4294V51.2659C27.7014 51.4737 27.6259 51.6399 27.4751 51.7784C27.3091 51.9307 27.128 52 26.9017 52H24.1256C23.8992 52 23.7182 51.9307 23.5673 51.7784C23.4013 51.6399 23.3259 51.4737 23.3259 51.2659V39.7562C23.3259 39.5623 23.4013 39.3961 23.5673 39.2438C23.7182 39.0914 23.8992 39.0222 24.1256 39.0222H26.8866C27.113 39.0222 27.294 38.9529 27.46 38.8006C27.6109 38.662 27.6863 38.4958 27.6863 38.2881V37.7341C27.6863 37.5263 27.7617 37.3601 27.9277 37.2078C28.0786 37.0693 28.2596 37 28.4709 37H36.9352C37.1615 37 37.3426 37.0693 37.5085 37.2078C37.6594 37.3601 37.7348 37.5263 37.7348 37.7341V38.2881C37.7348 38.4958 37.8103 38.662 37.9763 38.8006C38.1271 38.9529 38.3082 39.0222 38.5345 39.0222H41.3107C41.537 39.0222 41.7181 39.0914 41.884 39.2438C42.0349 39.3961 42.1103 39.5623 42.1103 39.7562V51.2659C42.1103 51.4737 42.0349 51.6399 41.884 51.7784C41.7181 51.9307 41.537 52 41.3107 52ZM36.9352 44.6731C37.1615 44.6731 37.3426 44.6039 37.5085 44.4515C37.6594 44.313 37.7348 44.1468 37.7348 43.9391V39.7562C37.7348 39.5623 37.6594 39.3961 37.5085 39.2438C37.3426 39.0914 37.1615 39.0222 36.9352 39.0222H28.501C28.2747 39.0222 28.0937 39.0914 27.9428 39.2438C27.7768 39.3961 27.7014 39.5623 27.7014 39.7562V43.9391C27.7014 44.1468 27.7768 44.313 27.9428 44.4515C28.0937 44.6039 28.2747 44.6731 28.501 44.6731H36.9352Z" fill="#3B44F6"/>
<path d="M70.9584 52H68.1822C67.971 52 67.7899 51.9307 67.6391 51.7784C67.4731 51.6399 67.3977 51.4737 67.3977 51.2659V39.7562C67.3977 39.4931 67.3071 39.313 67.1261 39.1884C66.9299 39.0776 66.7036 39.0222 66.432 39.0222C66.1755 39.0222 65.9492 39.133 65.7833 39.3407L61.5436 44.8947C61.3776 45.1025 61.1513 45.1994 60.8948 45.1994H58.2393C57.9828 45.1994 57.7565 45.1025 57.5905 44.8947L53.3508 39.3407C53.2452 39.2022 53.1396 39.1191 53.0189 39.0776C52.8831 39.036 52.7322 39.0222 52.5361 39.0222C52.3098 39.0222 52.1287 39.0914 51.9778 39.2299C51.8119 39.3823 51.7364 39.5485 51.7364 39.7562V51.2659C51.7364 51.4737 51.661 51.6399 51.5101 51.7784C51.3441 51.9307 51.1631 52 50.9368 52H48.1757C47.9494 52 47.7683 51.9307 47.6174 51.7784C47.4515 51.6399 47.376 51.4737 47.376 51.2659V39.7562C47.376 39.5485 47.4515 39.3823 47.6174 39.2299C47.7683 39.0914 47.9494 39.0222 48.1757 39.0222H50.9368C51.1631 39.0222 51.3441 38.9529 51.5101 38.8006C51.661 38.662 51.7364 38.4958 51.7364 38.2881V37.7341C51.7364 37.5263 51.8119 37.3601 51.9778 37.2078C52.1287 37.0693 52.3098 37 52.5361 37H54.7087C54.9803 37 55.2066 37.097 55.3726 37.3047L58.9183 42.0277C59.0842 42.2355 59.2955 42.3463 59.567 42.3463C59.8386 42.3463 60.0499 42.2355 60.2158 42.0277L63.7615 37.3047C63.9274 37.097 64.1538 37 64.4253 37H66.598C66.8243 37 67.0054 37.0693 67.1713 37.2078C67.3222 37.3601 67.3977 37.5263 67.3977 37.7341V38.2881C67.3977 38.4958 67.4731 38.662 67.6391 38.8006C67.7899 38.9529 67.971 39.0222 68.1973 39.0222H70.9584C71.1847 39.0222 71.3658 39.0914 71.5317 39.2299C71.6826 39.3823 71.7581 39.5485 71.7581 39.7562V51.2659C71.7581 51.4737 71.6826 51.6399 71.5317 51.7784C71.3658 51.9307 71.1847 52 70.9584 52Z" fill="#3B44F6"/>
<path d="M93.4545 52H80.9315C80.7655 52 80.6147 51.9861 80.4638 51.9723C80.3129 51.9584 80.1771 51.8892 80.0564 51.7922L76.7823 48.759C76.6315 48.6066 76.556 48.4404 76.556 48.2465V39.7562C76.556 39.5623 76.6315 39.3961 76.7974 39.2438C76.9483 39.0914 77.1294 39.0222 77.3557 39.0222H80.1017C80.328 39.0222 80.509 38.9529 80.675 38.8006C80.8259 38.662 80.9013 38.4958 80.9013 38.2881V37.7341C80.9013 37.5263 80.9768 37.3601 81.1427 37.2078C81.2936 37.0693 81.4747 37 81.701 37H93.4545C93.6808 37 93.8618 37.0693 94.0278 37.2078C94.1787 37.3601 94.2541 37.5263 94.2541 37.7341V38.2881C94.2541 38.4958 94.1787 38.662 94.0278 38.8006C93.8618 38.9529 93.6808 39.0222 93.4545 39.0222H81.7161C81.4898 39.0222 81.3087 39.0914 81.1578 39.2438C80.9919 39.3961 80.9164 39.5623 80.9164 39.7562V42.7479C80.9164 42.9557 80.9919 43.1219 81.1578 43.2604C81.3087 43.4127 81.4898 43.482 81.7161 43.482H92.1871C92.4134 43.482 92.5945 43.5512 92.7604 43.6898C92.9113 43.8421 92.9867 44.0083 92.9867 44.2161V44.7839C92.9867 44.9917 92.9113 45.1579 92.7604 45.2964C92.5945 45.4488 92.4134 45.518 92.1871 45.518H81.7161C81.4898 45.518 81.3087 45.5873 81.1578 45.7258C80.9919 45.8781 80.9164 46.0443 80.9164 46.2521V48.9391C80.9164 49.1468 80.9919 49.313 81.1578 49.4654L81.2484 49.5485C81.354 49.6731 81.4747 49.7701 81.5954 49.8532C81.7161 49.9363 81.867 49.9778 82.0329 49.9778H93.4545C93.6808 49.9778 93.8618 50.0471 94.0278 50.1856C94.1787 50.3379 94.2541 50.5042 94.2541 50.7119V51.2659C94.2541 51.4737 94.1787 51.6399 94.0278 51.7784C93.8618 51.9307 93.6808 52 93.4545 52Z" fill="#3B44F6"/>
<path d="M110.926 52H99.7461C99.5349 52 99.3538 51.9307 99.1879 51.7922L96.2306 49.0776V48.856C96.2306 48.6482 96.3061 48.482 96.457 48.3296C96.6078 48.1911 96.7889 48.1219 97.0152 48.1219L98.4787 48.108C98.6749 48.108 98.8409 48.1773 98.9917 48.3158L100.576 49.7562C100.742 49.9086 100.923 49.9778 101.149 49.9778H109.523C109.734 49.9778 109.915 49.9086 110.081 49.7562L110.398 49.4654C110.564 49.313 110.64 49.1468 110.64 48.9391V46.4875C110.64 46.2798 110.564 46.1136 110.413 45.9612C110.247 45.8227 110.066 45.7535 109.84 45.7535H100.923C100.712 45.7535 100.531 45.6842 100.365 45.5457L96.4721 41.9723C96.3061 41.8199 96.2306 41.6537 96.2306 41.4598V39.7562C96.2306 39.5485 96.3061 39.3823 96.4721 39.2299C96.6229 39.0914 96.804 39.0222 97.0303 39.0222H99.8065C100.033 39.0222 100.214 38.9529 100.365 38.8006C100.516 38.662 100.591 38.4958 100.591 38.2881V37.7341C100.591 37.5263 100.666 37.3601 100.832 37.2078C100.983 37.0693 101.164 37 101.391 37H111.485C111.711 37 111.907 37.0693 112.043 37.2078L115 39.9224V40.144C115 40.3518 114.925 40.518 114.774 40.6565C114.623 40.795 114.442 40.8643 114.215 40.8781L112.812 40.892C112.586 40.892 112.405 40.8227 112.239 40.6842L110.655 39.2438C110.489 39.0914 110.308 39.0222 110.096 39.0222H101.391C101.164 39.0222 100.983 39.0914 100.832 39.2299C100.666 39.3823 100.591 39.5485 100.591 39.7562V43.0803L100.697 43.1634H110.293V43.1773C110.519 43.1773 110.715 43.2465 110.866 43.385L114.774 46.9584C114.925 47.097 115 47.277 115 47.4848V48.2465C115 48.4404 114.925 48.6066 114.774 48.759L111.5 51.7922C111.349 51.9307 111.153 52 110.926 52Z" fill="#3B44F6"/>
<path d="M0 31.2774V0H5.77762V12.7281H13.1191L23.8055 0H30.061V1.65075L18.332 15.6387L30.1045 29.6266V31.2774H23.8055L13.1191 18.5492H5.77762V31.2774H0Z" fill="white"/>
<path d="M33.9652 31.2774V0H39.656V31.2774H33.9652Z" fill="white"/>
<path d="M43.864 31.2774V0H50.1629L61.5009 13.5101L72.7955 0H79.1379V31.2774H73.3603V8.34063L61.5009 22.4589L49.5982 8.38407V31.2774H43.864Z" fill="white"/>
<path d="M90.1169 31.2774C89.0164 31.2774 88.0027 31.0022 87.076 30.452C86.1782 29.9017 85.4542 29.1777 84.904 28.2799C84.3537 27.3532 84.0786 26.3396 84.0786 25.2391V6.03827C84.0786 4.93777 84.3537 3.93863 84.904 3.04085C85.4542 2.11412 86.1782 1.37562 87.076 0.825374C88.0027 0.275125 89.0164 0 90.1169 0H109.318C110.418 0 111.417 0.275125 112.315 0.825374C113.242 1.37562 113.98 2.11412 114.531 3.04085C115.081 3.93863 115.356 4.93777 115.356 6.03827V25.2391C115.356 26.3396 115.081 27.3532 114.531 28.2799C113.98 29.1777 113.242 29.9017 112.315 30.452C111.417 31.0022 110.418 31.2774 109.318 31.2774H90.1169ZM90.3341 25.4997H109.014C109.158 25.4997 109.289 25.4563 109.405 25.3694C109.52 25.2536 109.578 25.1232 109.578 24.9784V6.29891C109.578 6.15411 109.52 6.03827 109.405 5.95139C109.289 5.83554 109.158 5.77762 109.014 5.77762H90.3341C90.1893 5.77762 90.0589 5.83554 89.9431 5.95139C89.8562 6.03827 89.8128 6.15411 89.8128 6.29891V24.9784C89.8128 25.1232 89.8562 25.2536 89.9431 25.3694C90.0589 25.4563 90.1893 25.4997 90.3341 25.4997Z" fill="white"/>
</svg>
